{
.appVersion = "3343";
.formatVersion = 3;
DisplayStrings = (
"nnannooaoo
nnbnnooboo
nncnnoocoo
nndnnoodoo
nnennooeoo
nnfnnoofoo
nngnnoogoo
nnhnnoohoo
nninnooioo
nnjnnoojoo
nnknnookoo
nnlnnooloo
nnmnnoomoo
nnnnnoonoo
nnonnooooo
nnpnnoopoo
nnqnnooqoo
nnrnnooroo
nnsnnoosoo
nntnnootoo
nnunnoouoo
nnvnnoovoo
nnwnnoowoo
nnxnnooxoo
nnynnooyoo
nnznnoozoo
",
ABCDEFGHIJKLMNOPQRSTUVWXYZ
);
date = "2025-06-16 18:29:40 +0000";
familyName = "SuperbEllipse Proportional Sans";
fontMaster = (
{
id = m01;
metricValues = (
{
over = 16;
pos = 760;
},
{
over = 16;
pos = 700;
},
{
over = 16;
pos = 500;
},
{
over = -16;
},
{
over = -16;
pos = -212;
},
{
pos = 12;
}
);
name = Italic;
}
);
glyphs = (
{
glyphname = A;
lastChange = "2025-06-26 16:06:48 +0000";
layers = (
{
layerId = m01;
shapes = (
{
closed = 1;
nodes = (
(489,700,l),
(407,700,l),
(20,0,l),
(102,0,l)
);
},
{
closed = 1;
nodes = (
(448,700,l),
(547,0,l),
(588,0,l),
(489,700,l)
);
},
{
closed = 1;
nodes = (
(512,304,l),
(518,335,l),
(254,335,l),
(248,304,l)
);
}
);
width = 608;
}
);
unicode = 65;
},
{
glyphname = B;
lastChange = "2025-06-26 16:06:48 +0000";
layers = (
{
layerId = m01;
shapes = (
{
closed = 1;
nodes = (
(315,0,l),
(425,0,o),
(546,51,o),
(575,188,cs),
(575,188,o),
(570,167,o),
(583,224,cs),
(605,328,o),
(501,406,o),
(391,406,c),
(205,405,l),
(199,376,l),
(385,376,l),
(482,376,o),
(516,303,o),
(501,232,cs),
(488,170,ls),
(470,83,o),
(436,30,o),
(321,30,c),
(143,30,l),
(139,0,l)
);
},
{
closed = 1;
nodes = (
(147,0,l),
(296,700,l),
(214,700,l),
(65,0,l)
);
},
{
closed = 0;
nodes = (
(121,264,l)
);
},
{
closed = 1;
nodes = (
(355,376,l),
(445,376,o),
(579,395,o),
(608,533,cs),
(630,633,o),
(602,701,o),
(454,701,c),
(268,700,l),
(247,671,l),
(448,671,l),
(515,671,o),
(546,630,o),
(531,558,cs),
(519,502,ls),
(509,455,o),
(456,406,o),
(361,406,c),
(223,406,l),
(219,376,l)
);
}
);
width = 575;
}
);
unicode = 66;
},
{
glyphname = C;
lastChange = "2025-06-26 16:06:48 +0000";
layers = (
{
layerId = m01;
shapes = (
{
closed = 1;
nodes = (
(660,223,l),
(617,69,o),
(529,14,o),
(386,14,cs),
(249,14,o),
(136,91,o),
(181,304,cs),
(198,386,ls),
(244,598,o),
(392,685,o),
(529,685,cs),
(657,685,o),
(744,620,o),
(711,466,c),
(791,466,l),
(820,647,o),
(674,715,o),
(535,715,cs),
(385,715,o),
(166,623,o),
(112,368,cs),
(104,332,ls),
(49,75,o),
(230,-16,o),
(380,-16,cs),
(516,-16,o),
(690,49,o),
(737,223,c)
);
}
);
width = 719;
}
);
unicode = 67;
},
{
glyphname = D;
lastChange = "2025-06-26 16:06:48 +0000";
layers = (
{
layerId = m01;
shapes = (
{
closed = 1;
nodes = (
(147,0,l),
(296,700,l),
(214,700,l),
(65,0,l)
);
},
{
closed = 0;
nodes = (
(121,264,l)
);
},
{
closed = 1;
nodes = (
(266,30,l),
(143,30,l),
(139,0,l),
(260,0,l)
);
},
{
closed = 1;
nodes = (
(409,701,l),
(268,700,l),
(247,671,l),
(403,671,l)
);
},
{
closed = 0;
nodes = (
(121,264,l)
);
},
{
closed = 1;
nodes = (
(518,670,o),
(652,599,o),
(607,388,cs),
(590,306,ls),
(545,94,o),
(383,31,o),
(266,30,c),
(260,0,l),
(390,1,o),
(625,78,o),
(679,334,cs),
(687,370,ls),
(741,624,o),
(539,700,o),
(409,701,c),
(403,671,l)
);
}
);
width = 638;
}
);
unicode = 68;
},
{
glyphname = E;
lastChange = "2025-06-26 16:06:48 +0000";
layers = (
{
layerId = m01;
shapes = (
{
closed = 1;
nodes = (
(147,0,l),
(289,669,l),
(647,669,l),
(654,700,l),
(296,700,l),
(214,700,l),
(65,0,l)
);
},
{
closed = 1;
nodes = (
(505,0,l),
(512,31,l),
(154,31,l),
(147,0,l)
);
},
{
closed = 1;
nodes = (
(472,370,l),
(478,401,l),
(232,401,l),
(226,370,l)
);
}
);
width = 535;
}
);
unicode = 69;
},
{
glyphname = F;
lastChange = "2025-06-26 16:06:48 +0000";
layers = (
{
layerId = m01;
shapes = (
{
closed = 1;
nodes = (
(147,0,l),
(289,669,l),
(647,669,l),
(654,700,l),
(296,700,l),
(296,700,l),
(214,700,l),
(65,0,l)
);
},
{
closed = 1;
nodes = (
(487,300,l),
(493,331,l),
(217,331,l),
(211,300,l)
);
}
);
width = 535;
}
);
unicode = 70;
},
{
glyphname = G;
lastChange = "2025-06-26 16:06:48 +0000";
layers = (
{
layerId = m01;
shapes = (
{
closed = 0;
nodes = (
(120,264,l)
);
},
{
closed = 1;
nodes = (
(751,291,l),
(758,322,l),
(563,322,l),
(556,291,l)
);
},
{
closed = 1;
nodes = (
(674,291,l),
(632,90,o),
(529,14,o),
(386,14,cs),
(249,14,o),
(136,91,o),
(181,304,cs),
(198,386,ls),
(244,598,o),
(392,685,o),
(529,685,cs),
(657,685,o),
(744,620,o),
(711,466,c),
(791,466,l),
(820,647,o),
(674,715,o),
(535,715,cs),
(385,715,o),
(166,623,o),
(112,368,cs),
(104,332,ls),
(49,75,o),
(230,-16,o),
(380,-16,cs),
(516,-16,o),
(704,69,o),
(751,291,c)
);
},
{
closed = 1;
nodes = (
(674,291,l),
(751,291,l),
(751,291,l),
(674,291,l)
);
},
{
closed = 1;
nodes = (
(658,0,l),
(689,0,l),
(751,291,l),
(720,291,l)
);
}
);
width = 734;
}
);
unicode = 71;
},
{
glyphname = H;
lastChange = "2025-06-26 16:06:48 +0000";
layers = (
{
layerId = m01;
shapes = (
{
closed = 1;
nodes = (
(147,0,l),
(226,370,l),
(642,370,l),
(563,0,l),
(645,0,l),
(794,700,l),
(712,700,l),
(648,401,l),
(232,401,l),
(296,700,l),
(214,700,l),
(65,0,l)
);
}
);
width = 710;
}
);
unicode = 72;
},
{
glyphname = I;
lastChange = "2025-06-26 16:06:48 +0000";
layers = (
{
layerId = m01;
shapes = (
{
closed = 1;
nodes = (
(214,700,l),
(65,0,l),
(147,0,l),
(296,700,l)
);
}
);
width = 212;
}
);
unicode = 73;
},
{
glyphname = J;
lastChange = "2025-06-26 16:06:48 +0000";
layers = (
{
layerId = m01;
shapes = (
{
closed = 1;
nodes = (
(434,198,l),
(541,700,l),
(459,700,l),
(352,198,l)
);
},
{
closed = 1;
nodes = (
(349,182,ls),
(327,80,o),
(302,12,o),
(205,12,cs),
(135,12,o),
(114,59,o),
(130,135,c),
(52,135,l),
(30,29,o),
(112,-16,o),
(199,-16,cs),
(309,-16,o),
(400,36,o),
(431,181,cs),
(434,198,l),
(352,198,l)
);
}
);
width = 454;
}
);
unicode = 74;
},
{
glyphname = K;
lastChange = "2025-06-26 16:06:48 +0000";
layers = (
{
layerId = m01;
shapes = (
{
closed = 1;
nodes = (
(163,222,l),
(688,700,l),
(645,700,l),
(120,222,l)
);
},
{
closed = 1;
nodes = (
(214,700,l),
(65,0,l),
(147,0,l),
(296,700,l)
);
},
{
closed = 1;
nodes = (
(302,374,l),
(485,0,l),
(577,0,l),
(370,435,l)
);
}
);
width = 577;
}
);
unicode = 75;
},
{
glyphname = L;
lastChange = "2025-06-26 16:06:48 +0000";
layers = (
{
layerId = m01;
shapes = (
{
closed = 1;
nodes = (
(147,0,l),
(296,700,l),
(214,700,l),
(65,0,l)
);
},
{
closed = 1;
nodes = (
(505,0,l),
(512,31,l),
(154,31,l),
(147,0,l)
);
}
);
width = 535;
}
);
unicode = 76;
},
{
glyphname = M;
lastChange = "2025-06-26 16:06:48 +0000";
layers = (
{
layerId = m01;
shapes = (
{
closed = 1;
nodes = (
(797,0,l),
(946,700,l),
(864,700,l),
(715,0,l)
);
},
{
closed = 1;
nodes = (
(434,0,l),
(904,700,l),
(864,700,l),
(473,115,l),
(250,700,l),
(214,700,l),
(65,1,l),
(101,1,l),
(211,516,l),
(409,1,l)
);
}
);
width = 862;
}
);
unicode = 77;
},
{
glyphname = N;
lastChange = "2025-06-26 16:06:48 +0000";
layers = (
{
layerId = m01;
shapes = (
{
closed = 1;
nodes = (
(594,0,l),
(743,700,l),
(707,700,l),
(558,0,l)
);
},
{
closed = 1;
nodes = (
(587,132,l),
(250,700,l),
(214,700,l),
(65,1,l),
(101,1,l),
(220,559,l),
(558,0,l)
);
}
);
width = 659;
}
);
unicode = 78;
},
{
glyphname = O;
lastChange = "2025-06-26 16:06:48 +0000";
layers = (
{
layerId = m01;
shapes = (
{
closed = 1;
nodes = (
(530,-16,o),
(749,75,o),
(804,332,cs),
(812,368,ls),
(866,623,o),
(685,715,o),
(535,715,cs),
(385,715,o),
(166,623,o),
(112,368,cs),
(104,332,ls),
(49,75,o),
(230,-16,o),
(380,-16,cs)
);
},
{
closed = 1;
nodes = (
(249,14,o),
(136,91,o),
(181,304,cs),
(198,386,ls),
(244,598,o),
(392,685,o),
(529,685,cs),
(666,685,o),
(777,598,o),
(731,386,cs),
(714,304,ls),
(670,97,o),
(541,14,o),
(386,14,cs)
);
}
);
width = 760;
}
);
unicode = 79;
},
{
glyphname = P;
lastChange = "2025-06-26 16:06:48 +0000";
layers = (
{
layerId = m01;
shapes = (
{
closed = 1;
nodes = (
(214,700,l),
(65,0,l),
(147,0,l),
(296,700,l)
);
},
{
closed = 1;
nodes = (
(427,670,l),
(544,670,o),
(550,600,o),
(525,483,cs),
(519,456,ls),
(493,334,o),
(454,244,o),
(337,244,c),
(330,214,l),
(460,214,o),
(569,299,o),
(604,464,cs),
(638,626,o),
(564,700,o),
(434,700,c)
);
},
{
closed = 1;
nodes = (
(141,214,l),
(330,214,l),
(337,244,l),
(148,244,l)
);
},
{
closed = 1;
nodes = (
(238,670,l),
(427,670,l),
(434,700,l),
(245,700,l)
);
}
);
width = 535;
}
);
unicode = 80;
},
{
glyphname = Q;
lastChange = "2025-06-26 16:06:48 +0000";
layers = (
{
layerId = m01;
shapes = (
{
closed = 0;
nodes = (
(185,264,l)
);
},
{
closed = 1;
nodes = (
(377,-1,l),
(374,-17,ls),
(343,-163,o),
(432,-228,o),
(525,-228,cs),
(599,-228,o),
(685,-189,o),
(704,-99,c),
(618,-99,l),
(605,-162,o),
(571,-203,o),
(512,-203,cs),
(430,-203,o),
(453,-128,o),
(477,-17,cs),
(480,-1,l)
);
},
{
closed = 1;
nodes = (
(575,-16,o),
(794,75,o),
(849,332,cs),
(857,368,ls),
(911,623,o),
(730,715,o),
(580,715,cs),
(430,715,o),
(211,623,o),
(157,368,cs),
(149,332,ls),
(94,75,o),
(275,-16,o),
(425,-16,cs)
);
},
{
closed = 1;
nodes = (
(294,14,o),
(181,91,o),
(226,304,cs),
(244,386,ls),
(289,598,o),
(437,685,o),
(574,685,cs),
(711,685,o),
(822,598,o),
(777,386,cs),
(759,304,ls),
(715,97,o),
(586,14,o),
(431,14,cs)
);
}
);
width = 760;
}
);
unicode = 81;
},
{
glyphname = R;
lastChange = "2025-06-26 16:06:48 +0000";
layers = (
{
layerId = m01;
shapes = (
{
closed = 1;
nodes = (
(214,700,l),
(65,0,l),
(147,0,l),
(296,700,l)
);
},
{
closed = 1;
nodes = (
(152,264,l),
(341,264,l),
(347,294,l),
(158,294,l)
);
},
{
closed = 1;
nodes = (
(238,670,l),
(427,670,l),
(434,700,l),
(245,700,l)
);
},
{
closed = 1;
nodes = (
(411,0,l),
(503,0,l),
(393,282,l),
(306,279,l)
);
},
{
closed = 1;
nodes = (
(427,670,l),
(544,670,o),
(553,615,o),
(530,508,cs),
(524,481,ls),
(500,369,o),
(464,294,o),
(347,294,c),
(341,264,l),
(471,264,o),
(576,334,o),
(609,489,cs),
(641,641,o),
(564,700,o),
(434,700,c)
);
}
);
width = 545;
}
);
unicode = 82;
},
{
glyphname = S;
lastChange = "2025-06-26 16:06:48 +0000";
layers = (
{
layerId = m01;
shapes = (
{
closed = 1;
nodes = (
(602,545,l),
(633,691,o),
(483,716,o),
(420,716,cs),
(335,716,o),
(190,658,o),
(161,521,cs),
(138,413,o),
(262,363,o),
(301,340,cs),
(340,317,ls),
(374,297,o),
(509,224,o),
(490,133,cs),
(475,66,o),
(397,17,o),
(283,17,cs),
(183,17,o),
(124,78,o),
(147,187,c),
(73,187,l),
(42,41,o),
(182,-16,o),
(282,-16,cs),
(399,-16,o),
(527,46,o),
(552,162,cs),
(578,285,o),
(447,352,o),
(390,384,cs),
(354,404,ls),
(319,424,o),
(208,481,o),
(224,559,cs),
(239,627,o),
(324,684,o),
(413,684,cs),
(523,684,o),
(542,621,o),
(526,545,c)
);
}
);
width = 538;
}
);
unicode = 83;
},
{
glyphname = T;
lastChange = "2025-06-26 16:06:48 +0000";
layers = (
{
layerId = m01;
shapes = (
{
closed = 1;
nodes = (
(172,669,l),
(712,669,l),
(719,700,l),
(179,700,l)
);
},
{
closed = 1;
nodes = (
(260,0,l),
(342,0,l),
(491,700,l),
(409,700,l)
);
}
);
width = 600;
}
);
unicode = 84;
},
{
glyphname = U;
lastChange = "2025-06-26 16:06:48 +0000";
layers = (
{
layerId = m01;
shapes = (
{
closed = 0;
nodes = (
(120,264,l)
);
},
{
closed = 1;
nodes = (
(740,700,l),
(650,274,ls),
(606,68,o),
(473,20,o),
(348,20,cs),
(251,20,o),
(161,71,o),
(205,274,cs),
(295,700,l),
(212,700,l),
(125,292,ls),
(73,45,o),
(237,-16,o),
(336,-16,cs),
(457,-16,o),
(633,25,o),
(685,272,c),
(776,700,l)
);
}
);
width = 684;
}
);
unicode = 85;
},
{
glyphname = V;
lastChange = "2025-06-26 16:06:48 +0000";
layers = (
{
layerId = m01;
shapes = (
{
closed = 1;
nodes = (
(390,0,l),
(271,700,l),
(189,700,l),
(308,0,l)
);
},
{
closed = 1;
nodes = (
(348,0,l),
(390,0,l),
(809,700,l),
(767,700,l)
);
}
);
width = 700;
}
);
unicode = 86;
},
{
glyphname = W;
lastChange = "2025-06-26 16:06:48 +0000";
layers = (
{
layerId = m01;
shapes = (
{
closed = 1;
nodes = (
(340,0,l),
(271,700,l),
(189,700,l),
(258,0,l)
);
},
{
closed = 1;
nodes = (
(298,0,l),
(340,0,l),
(709,700,l),
(667,700,l)
);
},
{
closed = 1;
nodes = (
(778,0,l),
(709,700,l),
(633,636,l),
(696,0,l)
);
},
{
closed = 1;
nodes = (
(736,0,l),
(778,0,l),
(1147,700,l),
(1105,700,l)
);
}
);
width = 1038;
}
);
unicode = 87;
},
{
glyphname = X;
lastChange = "2025-06-26 16:06:48 +0000";
layers = (
{
layerId = m01;
shapes = (
{
closed = 1;
nodes = (
(685,0,l),
(326,700,l),
(224,700,l),
(583,0,l)
);
},
{
closed = 1;
nodes = (
(464,352,l),
(814,700,l),
(762,700,l),
(445,387,l)
);
},
{
closed = 1;
nodes = (
(435,387,l),
(45,0,l),
(101,0,l),
(454,352,l)
);
}
);
width = 730;
}
);
unicode = 88;
},
{
glyphname = Y;
lastChange = "2025-06-26 16:06:48 +0000";
layers = (
{
layerId = m01;
shapes = (
{
closed = 1;
nodes = (
(406,264,l),
(261,700,l),
(179,700,l),
(324,264,l)
);
},
{
closed = 1;
nodes = (
(350,0,l),
(408,275,l),
(326,275,l),
(268,0,l)
);
},
{
closed = 1;
nodes = (
(406,264,l),
(739,700,l),
(693,700,l),
(364,264,l)
);
}
);
width = 620;
}
);
unicode = 89;
},
{
glyphname = Z;
lastChange = "2025-06-26 16:22:37 +0000";
layers = (
{
layerId = m01;
shapes = (
{
closed = 1;
nodes = (
(50,0,l),
(600,0,l),
(608,31,l),
(153,31,l),
(711,664,l),
(719,700,l),
(200,700,l),
(192,669,l),
(617,669,l),
(59,36,l)
);
}
);
width = 650;
}
);
unicode = 90;
},
{
glyphname = a;
lastChange = "2025-06-26 16:17:39 +0000";
layers = (
{
layerId = m01;
shapes = (
{
closed = 1;
nodes = (
(467,0,l),
(573,500,l),
(491,500,l),
(385,0,l)
);
},
{
closed = 1;
nodes = (
(351,486,ls),
(426,486,o),
(476,428,o),
(462,362,c),
(476,430,ls),
(480,445,o),
(447,512,o),
(357,516,cs),
(227,516,o),
(124,453,o),
(84,268,cs),
(76,231,ls),
(38,56,o),
(114,-16,o),
(244,-16,cs),
(354,-16,o),
(463,76,o),
(500,251,c),
(531,301,l),
(423,175,l),
(408,102,o),
(377,14,o),
(250,14,cs),
(133,14,o),
(128,91,o),
(157,223,cs),
(171,286,ls),
(203,428,o),
(233,486,o),
(350,486,cs)
);
}
);
width = 515;
}
);
unicode = 97;
},
{
glyphname = b;
lastChange = "2025-06-26 16:11:47 +0000";
layers = (
{
layerId = m01;
shapes = (
{
closed = 1;
nodes = (
(230,760,l),
(68,0,l),
(150,0,l),
(157,30,l),
(190,-2,o),
(236,-16,o),
(285,-16,cs),
(385,-16,o),
(522,66,o),
(562,250,cs),
(601,436,o),
(498,516,o),
(398,516,cs),
(285,516,o),
(243,435,o),
(246,450,cs),
(312,760,l)
);
},
{
closed = 1;
nodes = (
(479,488,o),
(509,395,o),
(481,263,cs),
(474,227,ls),
(448,105,o),
(378,12,o),
(291,12,cs),
(182,12,o),
(169,63,o),
(177,125,c),
(227,362,ls),
(241,428,o),
(316,488,o),
(392,488,cs)
);
},
{
closed = 1;
nodes = (
(291,14,l),
(291,12,l)
);
}
);
width = 545;
}
);
unicode = 98;
},
{
glyphname = c;
lastChange = "2025-06-26 16:11:47 +0000";
layers = (
{
layerId = m01;
shapes = (
{
closed = 1;
nodes = (
(455,155,l),
(437,70,o),
(381,12,o),
(286,12,cs),
(179,12,o),
(149,105,o),
(175,227,cs),
(182,263,ls),
(210,395,o),
(280,488,o),
(387,488,cs),
(485,488,o),
(516,425,o),
(495,328,c),
(574,328,l),
(602,459,o),
(505,516,o),
(393,516,cs),
(263,516,o),
(136,436,o),
(97,250,cs),
(57,66,o),
(150,-16,o),
(280,-16,cs),
(387,-16,o),
(508,38,o),
(533,155,c)
);
}
);
width = 541;
}
);
unicode = 99;
},
{
glyphname = d;
lastChange = "2025-06-26 16:11:47 +0000";
layers = (
{
layerId = m01;
shapes = (
{
closed = 1;
nodes = (
(493,430,ls),
(490,415,o),
(463,512,o),
(373,516,cs),
(273,516,o),
(136,436,o),
(97,250,cs),
(57,66,o),
(160,-16,o),
(260,-16,cs),
(309,-16,o),
(361,-2,o),
(408,30,c),
(401,0,l),
(483,0,l),
(645,760,l),
(563,760,l)
);
},
{
closed = 1;
nodes = (
(443,488,o),
(492,428,o),
(478,362,cs),
(428,125,l),
(410,63,o),
(375,12,o),
(266,12,cs),
(179,12,o),
(149,105,o),
(175,227,cs),
(182,263,ls),
(210,395,o),
(280,488,o),
(367,488,cs)
);
},
{
closed = 1;
nodes = (
(266,14,l),
(266,12,l)
);
}
);
width = 545;
}
);
unicode = 100;
},
{
glyphname = e;
lastChange = "2025-06-26 16:11:47 +0000";
layers = (
{
layerId = m01;
shapes = (
{
closed = 1;
nodes = (
(488,238,l),
(495,270,l),
(161,270,l),
(154,238,l)
);
},
{
closed = 1;
nodes = (
(454,176,l),
(433,80,o),
(388,12,o),
(286,12,cs),
(179,12,o),
(149,105,o),
(175,227,cs),
(182,263,ls),
(210,395,o),
(280,488,o),
(377,488,cs),
(485,488,o),
(508,410,o),
(471,238,c),
(554,238,l),
(597,438,o),
(511,516,o),
(383,516,cs),
(263,516,o),
(136,436,o),
(97,250,cs),
(57,66,o),
(150,-16,o),
(280,-16,cs),
(393,-16,o),
(505,44,o),
(533,176,c)
);
}
);
width = 540;
}
);
unicode = 101;
},
{
glyphname = f;
lastChange = "2025-06-26 16:11:47 +0000";
layers = (
{
layerId = m01;
shapes = (
{
closed = 1;
nodes = (
(514,748,o),
(531,701,o),
(515,625,c),
(593,625,l),
(615,731,o),
(540,776,o),
(459,776,cs),
(458,776,ls),
(386,776,o),
(279,758,o),
(224,501,cs),
(118,0,l),
(200,0,l),
(306,500,ls),
(352,714,o),
(396,748,o),
(452,748,cs),
(453,748,ls)
);
},
{
closed = 1;
nodes = (
(140,470,l),
(378,470,l),
(384,500,l),
(146,500,l)
);
}
);
width = 318;
}
);
unicode = 102;
},
{
glyphname = g;
lastChange = "2025-06-26 16:16:01 +0000";
layers = (
{
layerId = m01;
shapes = (
{
closed = 1;
nodes = (
(351,486,ls),
(426,486,o),
(476,428,o),
(462,362,c),
(476,430,ls),
(480,445,o),
(447,512,o),
(357,516,cs),
(227,516,o),
(124,455,o),
(84,268,cs),
(83,264,ls),
(46,89,o),
(121,17,o),
(251,17,cs),
(361,17,o),
(470,109,o),
(507,284,c),
(531,301,l),
(430,208,l),
(415,135,o),
(384,47,o),
(257,47,cs),
(140,47,o),
(136,124,o),
(164,256,cs),
(171,286,ls),
(201,429,o),
(233,486,o),
(350,486,cs)
);
},
{
closed = 1;
nodes = (
(397,52,l),
(479,52,l),
(573,500,l),
(491,500,l)
);
},
{
closed = 1;
nodes = (
(394,36,ls),
(366,-96,o),
(306,-184,o),
(209,-184,cs),
(139,-184,o),
(99,-137,o),
(104,-61,c),
(26,-61,l),
(31,-167,o),
(116,-212,o),
(203,-212,cs),
(313,-212,o),
(438,-140,o),
(476,35,cs),
(479,52,l),
(397,52,l)
);
}
);
width = 488;
}
);
metricLeft = 8t0;
unicode = 103;
},
{
glyphname = h;
lastChange = "2025-06-26 16:11:47 +0000";
layers = (
{
layerId = m01;
shapes = (
{
closed = 1;
nodes = (
(147,0,l),
(309,760,l),
(227,760,l),
(65,0,l)
);
},
{
closed = 1;
nodes = (
(495,0,l),
(570,352,ls),
(595,469,o),
(532,516,o),
(415,516,cs),
(319,516,o),
(242,446,o),
(238,430,cs),
(224,362,l),
(238,428,o),
(323,486,o),
(398,486,cs),
(455,486,o),
(510,458,o),
(488,352,cs),
(413,0,l)
);
}
);
width = 560;
}
);
unicode = 104;
},
{
glyphname = i;
lastChange = "2025-06-26 16:11:47 +0000";
layers = (
{
layerId = m01;
shapes = (
{
closed = 1;
nodes = (
(152,0,l),
(258,500,l),
(176,500,l),
(70,0,l)
);
},
{
closed = 1;
nodes = (
(262,568,o),
(282,585,o),
(289,615,cs),
(295,645,o),
(281,661,o),
(252,661,cs),
(222,661,o),
(202,645,o),
(196,615,cs),
(189,585,o),
(203,568,o),
(233,568,cs)
);
}
);
width = 223;
}
);
unicode = 105;
},
{
glyphname = j;
lastChange = "2025-06-26 16:12:44 +0000";
layers = (
{
layerId = m01;
shapes = (
{
closed = 1;
nodes = (
(145,36,l),
(244,500,l),
(162,500,l),
(63,36,l)
);
},
{
closed = 1;
nodes = (
(247,568,o),
(268,585,o),
(274,615,cs),
(281,645,o),
(267,661,o),
(238,661,cs),
(208,661,o),
(188,645,o),
(181,615,cs),
(175,585,o),
(188,568,o),
(218,568,cs)
);
},
{
closed = 1;
nodes = (
(60,20,ls),
(32,-112,o),
(22,-200,o),
(-55,-200,cs),
(-123,-200,o),
(-113,-153,o),
(-97,-77,c),
(-175,-77,l),
(-197,-183,o),
(-156,-228,o),
(-61,-228,cs),
(29,-228,o),
(104,-156,o),
(142,19,cs),
(145,36,l),
(63,36,l)
);
}
);
width = 160;
}
);
unicode = 106;
},
{
glyphname = k;
lastChange = "2025-06-26 16:11:47 +0000";
layers = (
{
layerId = m01;
shapes = (
{
closed = 1;
nodes = (
(159,202,l),
(529,501,l),
(486,501,l),
(116,202,l)
);
},
{
closed = 1;
nodes = (
(227,760,l),
(65,0,l),
(147,0,l),
(309,760,l)
);
},
{
closed = 1;
nodes = (
(245,288,l),
(375,0,l),
(457,0,l),
(308,338,l)
);
}
);
width = 467;
}
);
unicode = 107;
},
{
glyphname = l;
lastChange = "2025-06-26 16:11:47 +0000";
layers = (
{
layerId = m01;
shapes = (
{
closed = 1;
nodes = (
(147,0,l),
(309,760,l),
(227,760,l),
(65,0,l)
);
}
);
width = 212;
}
);
unicode = 108;
},
{
glyphname = m;
lastChange = "2025-06-26 16:11:47 +0000";
layers = (
{
background = {
shapes = (
{
closed = 1;
nodes = (
(809,0,l),
(809,352,ls),
(809,469,o),
(736,516,o),
(619,516,cs),
(523,516,o),
(461,446,o),
(461,430,cs),
(461,362,l),
(461,430,o),
(534,486,o),
(609,486,cs),
(666,486,o),
(727,458,o),
(727,352,cs),
(727,0,l)
);
}
);
};
layerId = m01;
shapes = (
{
closed = 1;
nodes = (
(147,0,l),
(253,500,l),
(171,500,l),
(65,0,l)
);
},
{
closed = 1;
nodes = (
(481,0,l),
(556,352,ls),
(581,469,o),
(532,516,o),
(415,516,cs),
(319,516,o),
(242,446,o),
(238,430,cs),
(224,362,l),
(238,428,o),
(323,486,o),
(398,486,cs),
(455,486,o),
(497,458,o),
(475,352,cs),
(400,0,l)
);
},
{
closed = 1;
nodes = (
(481,0,l),
(556,352,ls),
(581,469,o),
(532,516,o),
(415,516,cs),
(319,516,o),
(242,446,o),
(238,430,cs),
(224,362,l),
(238,428,o),
(323,486,o),
(398,486,cs),
(455,486,o),
(496,458,o),
(474,352,cs),
(399,0,l)
);
},
{
closed = 1;
nodes = (
(829,0,l),
(904,352,ls),
(929,469,o),
(866,516,o),
(749,516,cs),
(653,516,o),
(570,442,o),
(561,416,c),
(558,362,l),
(572,430,o),
(657,486,o),
(732,486,cs),
(789,486,o),
(844,458,o),
(822,352,cs),
(747,0,l)
);
}
);
width = 894;
}
);
unicode = 109;
},
{
glyphname = n;
lastChange = "2025-06-26 16:11:47 +0000";
layers = (
{
layerId = m01;
shapes = (
{
closed = 1;
nodes = (
(147,0,l),
(253,500,l),
(171,500,l),
(65,0,l)
);
},
{
closed = 1;
nodes = (
(495,0,l),
(570,352,ls),
(595,469,o),
(532,516,o),
(415,516,cs),
(319,516,o),
(242,446,o),
(238,430,cs),
(224,362,l),
(238,428,o),
(323,486,o),
(398,486,cs),
(455,486,o),
(510,458,o),
(488,352,cs),
(413,0,l)
);
}
);
width = 560;
}
);
unicode = 110;
},
{
glyphname = o;
lastChange = "2025-06-26 16:11:47 +0000";
layers = (
{
layerId = m01;
shapes = (
{
closed = 1;
nodes = (
(189,12,o),
(149,105,o),
(175,227,cs),
(182,263,ls),
(210,395,o),
(290,488,o),
(397,488,cs),
(504,488,o),
(544,395,o),
(516,263,cs),
(509,227,ls),
(483,105,o),
(403,12,o),
(296,12,cs)
);
},
{
closed = 1;
nodes = (
(57,66,o),
(170,-16,o),
(290,-16,cs),
(410,-16,o),
(557,66,o),
(597,250,cs),
(636,436,o),
(523,516,o),
(403,516,cs),
(283,516,o),
(136,436,o),
(97,250,cs)
);
}
);
width = 580;
}
);
unicode = 111;
},
{
glyphname = p;
lastChange = "2025-06-26 16:13:19 +0000";
layers = (
{
layerId = m01;
shapes = (
{
closed = 1;
nodes = (
(162,495,l),
(12,-212,l),
(94,-212,l),
(145,30,l),
(179,-2,o),
(225,-16,o),
(274,-16,cs),
(374,-16,o),
(511,66,o),
(550,250,cs),
(590,436,o),
(487,516,o),
(387,516,cs),
(295,512,o),
(234,445,o),
(230,430,cs),
(244,495,l)
);
},
{
closed = 1;
nodes = (
(468,488,o),
(498,395,o),
(470,263,cs),
(462,227,ls),
(436,105,o),
(367,12,o),
(280,12,cs),
(171,12,o),
(157,63,o),
(166,125,c),
(216,362,ls),
(230,428,o),
(305,488,o),
(381,488,cs)
);
},
{
closed = 1;
nodes = (
(280,14,l),
(280,12,l)
);
}
);
width = 510;
}
);
unicode = 112;
},
{
glyphname = q;
lastChange = "2025-06-26 16:13:29 +0000";
layers = (
{
layerId = m01;
shapes = (
{
closed = 1;
nodes = (
(474,430,ls),
(471,415,o),
(445,512,o),
(355,516,cs),
(255,516,o),
(118,436,o),
(78,250,cs),
(39,66,o),
(142,-16,o),
(242,-16,cs),
(291,-16,o),
(343,-2,o),
(389,30,c),
(338,-212,l),
(420,-212,l),
(571,500,l),
(489,500,l)
);
},
{
closed = 1;
nodes = (
(425,488,o),
(474,428,o),
(460,362,cs),
(410,125,l),
(391,63,o),
(357,12,o),
(248,12,cs),
(161,12,o),
(130,105,o),
(156,227,cs),
(164,263,ls),
(192,395,o),
(262,488,o),
(349,488,cs)
);
},
{
closed = 1;
nodes = (
(248,14,l),
(248,12,l)
);
}
);
width = 485;
}
);
unicode = 113;
},
{
glyphname = r;
lastChange = "2025-06-26 16:11:47 +0000";
layers = (
{
layerId = m01;
shapes = (
{
closed = 1;
nodes = (
(147,0,l),
(253,500,l),
(171,500,l),
(65,0,l)
);
},
{
closed = 1;
nodes = (
(238,428,o),
(299,486,o),
(364,486,cs),
(411,486,o),
(420,458,o),
(401,365,c),
(483,365,l),
(505,469,o),
(488,516,o),
(381,516,cs),
(295,516,o),
(242,446,o),
(238,430,c),
(224,362,l)
);
}
);
width = 425;
}
);
unicode = 114;
},
{
glyphname = s;
lastChange = "2025-06-26 16:11:47 +0000";
layers = (
{
layerId = m01;
shapes = (
{
closed = 1;
nodes = (
(495,392,l),
(517,498,o),
(415,516,o),
(352,516,cs),
(277,516,o),
(166,474,o),
(145,374,cs),
(131,310,o),
(184,266,o),
(222,248,cs),
(299,211,ls),
(332,195,o),
(416,165,o),
(405,109,cs),
(390,39,o),
(298,16,o),
(248,16,cs),
(148,16,o),
(128,54,o),
(144,132,c),
(76,132,l),
(51,14,o),
(165,-16,o),
(252,-16,cs),
(322,-16,o),
(443,29,o),
(463,123,cs),
(486,231,o),
(401,254,o),
(365,272,cs),
(291,309,ls),
(258,325,o),
(197,346,o),
(209,402,cs),
(219,451,o),
(292,484,o),
(345,484,cs),
(416,484,o),
(439,447,o),
(428,392,c)
);
}
);
width = 478;
}
);
unicode = 115;
},
{
glyphname = t;
lastChange = "2025-06-26 16:11:47 +0000";
layers = (
{
layerId = m01;
shapes = (
{
closed = 1;
nodes = (
(254,28,l),
(177,28,o),
(187,82,o),
(215,214,cs),
(270,470,l),
(388,470,l),
(394,500,l),
(276,500,l),
(310,660,l),
(228,660,l),
(194,500,l),
(116,500,l),
(110,470,l),
(188,470,l),
(133,213,ls),
(96,38,o),
(158,0,o),
(248,0,c)
);
},
{
closed = 1;
nodes = (
(288,0,l),
(248,0,l),
(254,28,l),
(294,28,l)
);
}
);
width = 298;
}
);
unicode = 116;
},
{
glyphname = u;
lastChange = "2025-06-26 16:11:47 +0000";
layers = (
{
layerId = m01;
shapes = (
{
closed = 1;
nodes = (
(434,130,l),
(416,68,o),
(381,17,o),
(272,17,cs),
(215,17,o),
(160,45,o),
(182,151,cs),
(257,503,l),
(175,503,l),
(100,151,ls),
(81,60,o),
(104,-16,o),
(265,-16,cs),
(314,-16,o),
(367,3,o),
(414,35,c),
(406,0,l),
(488,0,l),
(595,503,l),
(513,503,l)
);
}
);
width = 550;
}
);
unicode = 117;
},
{
glyphname = v;
lastChange = "2025-06-26 16:11:47 +0000";
layers = (
{
layerId = m01;
shapes = (
{
closed = 1;
nodes = (
(290,0,l),
(218,500,l),
(131,500,l),
(203,0,l)
);
},
{
closed = 1;
nodes = (
(258,0,l),
(290,0,l),
(576,500,l),
(540,500,l)
);
}
);
width = 495;
}
);
unicode = 118;
},
{
glyphname = w;
lastChange = "2025-06-26 16:11:47 +0000";
layers = (
{
layerId = m01;
shapes = (
{
closed = 1;
nodes = (
(260,0,l),
(208,500,l),
(121,500,l),
(173,0,l)
);
},
{
closed = 1;
nodes = (
(228,0,l),
(260,0,l),
(526,500,l),
(490,500,l)
);
},
{
closed = 1;
nodes = (
(578,0,l),
(526,500,l),
(490,500,l),
(450,422,l),
(491,0,l)
);
},
{
closed = 1;
nodes = (
(546,0,l),
(578,0,l),
(844,500,l),
(808,500,l)
);
}
);
width = 753;
}
);
unicode = 119;
},
{
glyphname = x;
lastChange = "2025-06-26 16:11:47 +0000";
layers = (
{
layerId = m01;
shapes = (
{
closed = 1;
nodes = (
(533,0,l),
(240,500,l),
(131,500,l),
(424,0,l)
);
},
{
closed = 1;
nodes = (
(364,273,l),
(593,500,l),
(554,500,l),
(325,273,l)
);
},
{
closed = 1;
nodes = (
(311,273,l),
(35,0,l),
(74,0,l),
(350,273,l)
);
}
);
width = 558;
}
);
unicode = 120;
},
{
glyphname = y;
lastChange = "2025-06-26 16:13:57 +0000";
layers = (
{
layerId = m01;
shapes = (
{
closed = 1;
nodes = (
(273,0,l),
(195,500,l),
(108,500,l),
(196,-76,l)
);
},
{
closed = 1;
nodes = (
(8,-212,l),
(127,-212,o),
(172,-167,o),
(271,0,cs),
(569,500,l),
(533,500,l),
(238,0,ls),
(166,-121,o),
(145,-181,o),
(15,-180,c)
);
}
);
width = 443;
}
);
unicode = 121;
},
{
glyphname = z;
lastChange = "2025-06-26 16:14:06 +0000";
layers = (
{
layerId = m01;
shapes = (
{
closed = 1;
nodes = (
(497,32,l),
(97,32,l),
(90,0,l),
(490,0,l)
);
},
{
closed = 1;
nodes = (
(571,500,l),
(197,500,l),
(191,470,l),
(565,470,l)
);
},
{
closed = 1;
nodes = (
(468,470,l),
(98,32,l),
(195,32,l),
(565,470,l)
);
}
);
width = 520;
}
);
unicode = 122;
},
{
glyphname = period;
lastChange = "2025-06-25 17:33:44 +0000";
layers = (
{
layerId = m01;
shapes = (
{
closed = 1;
nodes = (
(111,-16,o),
(132,4,o),
(132,40,cs),
(132,76,o),
(111,96,o),
(76,96,cs),
(40,96,o),
(20,76,o),
(20,40,cs),
(20,4,o),
(40,-16,o),
(76,-16,cs)
);
}
);
width = 152;
}
);
unicode = 46;
},
